<svg xmlns="http://www.w3.org/2000/svg" height="800" width="1200" viewBox="-29.801205 -14.250025 258.27711 85.50015"><path d="M33.9227 36.8c0-3.346-2.226-6.059-4.971-6.059s-4.971 2.713-4.971 6.059 2.226 6.058 4.971 6.058 4.971-2.712 4.971-6.058m0-14.602c0-3.346-2.226-6.059-4.971-6.059s-4.971 2.713-4.971 6.059 2.226 6.058 4.971 6.058 4.971-2.713 4.971-6.058M50.4767.756c-2.994 1.491-4.431 4.692-3.207 7.15 1.224 2.458 4.645 3.24 7.64 1.749 2.994-1.492 4.431-4.693 3.206-7.15-1.224-2.458-4.644-3.24-7.639-1.749m-13.07 6.51c-2.995 1.491-4.431 4.693-3.207 7.15 1.224 2.458 4.645 3.24 7.639 1.749 2.995-1.492 4.432-4.693 3.207-7.15-1.224-2.458-4.645-3.241-7.639-1.749" fill="#919090"/><path d="M3.7217 9.722c3.017 1.447 6.425.614 7.612-1.862 1.187-2.475-.297-5.655-3.313-7.102C5.0037-.69 1.5957.145.4097 2.62c-1.188 2.475.296 5.655 3.312 7.102" fill="#29817B"/><path d="M16.8877 16.036c3.017 1.447 6.425.614 7.612-1.861 1.188-2.476-.297-5.656-3.313-7.103-3.017-1.446-6.425-.612-7.612 1.862-1.187 2.476.297 5.655 3.313 7.102" fill="#919090"/><path d="M67.8237 27.895l-1.676 2.308c-2.534-1.72-4.345-2.399-6.743-2.399-3.622 0-6.474 1.675-7.741 5.251-.814 2.308-1.222 4.934-1.222 7.875 0 4.074.77 7.378 2.173 9.415 1.403 2.037 4.571 3.305 7.514 3.305 1.946 0 3.621-.408 4.934-1.223v-9.46h-6.246l-.725-3.077h10.456v14.485c-2.218 1.447-5.567 2.353-8.736 2.353-3.893 0-7.196-1.357-9.55-3.893-2.626-2.851-3.848-6.699-3.848-12.04 0-5.929 1.539-10.185 4.798-13.036 2.218-1.991 4.889-2.942 8.103-2.942 3.303-.001 6.154 1.041 8.509 3.078m21.811 23.672l1.358 2.263c-1.992 1.811-4.707 2.808-7.604 2.808-6.246 0-10.004-4.526-10.004-11.995 0-3.803.77-6.292 2.717-8.509 1.811-2.127 4.028-3.169 6.744-3.169 2.444 0 4.616.86 6.11 2.489 1.946 1.992 2.49 4.12 2.58 9.506v.498h-14.077V46c0 2.127.271 3.757 1.041 4.933 1.268 1.947 3.35 2.762 5.612 2.762 2.175 0 3.939-.68 5.523-2.128m-12.176-8.78h10.32c-.045-2.444-.362-3.938-1.041-5.024-.77-1.223-2.354-1.992-4.074-1.992-3.213-.001-5.024 2.353-5.205 7.016zm19.374-8.782l3.439-.951c.589 1.268.815 2.218.815 3.53 2.354-2.354 4.707-3.485 7.107-3.485 2.443 0 4.616 1.313 5.521 3.304.361.815.543 1.72.543 2.626v17.109h-3.576V40.885c0-2.399-.135-3.033-.815-3.757-.497-.589-1.447-.951-2.489-.951-1.811 0-4.616 1.448-6.246 3.168v16.793h-3.44V39.346c0-3.123-.09-3.621-.859-5.341m24.215-.136l3.439-.814c.453.905.814 2.218.814 3.168v.181c1.042-1.086 1.494-1.403 2.762-2.172 1.448-.86 2.58-1.223 3.803-1.223 1.765 0 3.485.906 4.48 2.264.316.453.498.724.771 1.493 2.172-2.308 4.934-3.757 7.241-3.757 3.35 0 5.658 2.535 5.658 6.111v17.02h-3.621V39.482c0-2.173-.996-3.304-2.896-3.304-1.087 0-2.264.453-3.305 1.222-.679.498-1.448 1.132-2.263 1.901l-.408.362V56.14h-3.576V40.116c0-1.946-.044-2.263-.633-2.897-.543-.634-1.268-.906-2.309-.906-1.72 0-3.395.86-5.748 2.988v16.838h-3.396V39.346c.002-3.123-.088-3.621-.813-5.477m35.306 2.173c2.987-1.992 6.201-3.033 9.459-3.033 3.124 0 5.296 1.223 6.246 3.531.408.996.498 1.766.498 3.848v1.132l-.181 7.423c-.045.317-.045.679-.045 1.042 0 2.76.407 3.756 1.855 4.48l-1.81 2.535c-1.539-.498-2.671-1.721-3.078-3.305-2.173 2.172-3.938 3.032-6.518 3.032-2.852 0-4.255-.724-5.432-1.81-1.268-1.178-1.811-3.169-1.811-4.617 0-5.115 4.391-8.103 11.95-8.103.543 0 .814 0 1.583.045v-1.584c0-1.992-.091-2.806-.724-3.53-.725-.815-1.63-1.223-3.033-1.223-1.312 0-2.67.272-4.345.996-1.358.543-1.811.86-2.852 1.675l-1.762-2.534m12.627 8.645c-.769-.045-1.131-.091-1.765-.091-3.439 0-5.341.634-6.473 1.811-.859.905-1.267 2.037-1.267 3.577 0 2.67 1.313 4.118 3.893 4.118 2.308 0 4.436-1.403 5.477-3.53zm13.987-21.681c.453 1.946.589 3.259.589 5.613v5.024c0 1.132-.046 2.218-.091 2.49 2.218-2.173 4.073-3.033 6.473-3.033 5.386 0 8.736 4.391 8.736 11.452 0 7.243-3.576 12.131-8.962 12.131-2.354 0-4.934-1.313-6.202-2.987-.136 1.177-.226 1.584-.634 2.444h-3.53c.498-1.087.679-2.58.679-5.612V29.116c0-2.398-.316-4.164-.904-5.341l3.846-.769m.543 16.25v11.587c1.178 1.539 3.44 2.716 5.567 2.716 1.539 0 3.259-.815 4.074-1.992.814-1.222 1.584-3.44 1.584-7.242 0-2.988-.361-4.752-1.313-6.066-.86-1.222-2.489-1.946-4.255-1.946-1.448 0-2.67.408-4.073 1.403-1.086.77-1.04.815-1.584 1.54z" fill="#29817B"/></svg>